<svg xmlns="http://www.w3.org/2000/svg" viewBox="0 0 80 80" width="80" height="80" style="fill: rgb(254, 254, 254);">
    <path d="M 40 6 C 22.399589 6 8 18.702791 8 34.5 C 8 40.117889 9.85802 45.34613 13 49.75 L 13 51 C 13 57.063407 17.936593 62 24 62 L 27 62 L 27 70.5 L 27.400391 70.800781 C 27.400391 70.800781 28.545826 71.647068 30.648438 72.435547 C 32.751049 73.224026 35.875 74 40 74 C 44.125 74 47.248951 73.224026 49.351562 72.435547 C 51.454175 71.647068 52.599609 70.800781 52.599609 70.800781 L 53 70.5 L 53 62 L 56 62 C 62.063407 62 67 57.063407 67 51 L 67 49.75 C 70.14198 45.34613 72 40.117889 72 34.5 C 72 18.702791 57.600411 6 40 6 z M 40 8 C 56.641589 8 70 19.921209 70 34.5 C 70 39.446098 68.448565 44.057837 65.769531 48.027344 A 1 1 0 0 0 65 49 A 1 1 0 0 0 65.009766 49.126953 L 65 49.140625 L 65 51 C 65 55.982593 60.982593 60 56 60 L 53 60 A 1 1 0 0 0 52 59 A 1 1 0 0 0 51 60 L 51 69.398438 C 50.795011 69.542333 50.28972 69.922376 48.853516 70.480469 A 1 1 0 0 0 48 70 A 1 1 0 0 0 47 71 A 1 1 0 0 0 47.005859 71.097656 C 46.374187 71.274292 45.673017 71.437317 44.904297 71.576172 A 1 1 0 0 0 44 71 A 1 1 0 0 0 43.011719 71.839844 C 42.37716 71.906362 41.705444 71.953097 40.998047 71.976562 A 1 1 0 0 0 40 71 A 1 1 0 0 0 39 71.976562 C 38.292582 71.95305 37.620891 71.906409 36.986328 71.839844 A 1 1 0 0 0 36 71 A 1 1 0 0 0 35.095703 71.576172 C 34.326983 71.437317 33.625813 71.274292 32.994141 71.097656 A 1 1 0 0 0 33 71 A 1 1 0 0 0 32 70 A 1 1 0 0 0 31.146484 70.480469 C 29.710279 69.922376 29.204989 69.542333 29 69.398438 L 29 60 A 1 1 0 0 0 28 59 A 1 1 0 0 0 27 60 L 24 60 C 19.017407 60 15 55.982593 15 51 L 15 49.140625 L 14.990234 49.128906 A 1 1 0 0 0 15 49 A 1 1 0 0 0 14.230469 48.027344 C 11.551435 44.057837 10 39.446098 10 34.5 C 10 19.921209 23.358411 8 40 8 z M 18 36 A 1 1 0 0 0 17 37 A 1 1 0 0 0 18 38 A 1 1 0 0 0 19 37 A 1 1 0 0 0 18 36 z M 62 36 A 1 1 0 0 0 61 37 A 1 1 0 0 0 62 38 A 1 1 0 0 0 63 37 A 1 1 0 0 0 62 36 z M 29 37 C 24.041282 37 20 41.041282 20 46 C 20 50.958718 24.041282 55 29 55 C 33.958718 55 38 50.958718 38 46 C 38 41.041282 33.958718 37 29 37 z M 51 37 C 46.041282 37 42 41.041282 42 46 C 42 50.958718 46.041282 55 51 55 C 55.958718 55 60 50.958718 60 46 C 60 41.041282 55.958718 37 51 37 z M 29 39 C 32.877838 39 36 42.122162 36 46 C 36 49.877838 32.877838 53 29 53 C 25.122162 53 22 49.877838 22 46 C 22 42.122162 25.122162 39 29 39 z M 51 39 C 54.877838 39 58 42.122162 58 46 C 58 49.877838 54.877838 53 51 53 C 47.122162 53 44 49.877838 44 46 C 44 42.122162 47.122162 39 51 39 z M 16 40 A 1 1 0 0 0 15 41 A 1 1 0 0 0 16 42 A 1 1 0 0 0 17 41 A 1 1 0 0 0 16 40 z M 64 40 A 1 1 0 0 0 63 41 A 1 1 0 0 0 64 42 A 1 1 0 0 0 65 41 A 1 1 0 0 0 64 40 z M 15 44 A 1 1 0 0 0 14 45 A 1 1 0 0 0 15 46 A 1 1 0 0 0 16 45 A 1 1 0 0 0 15 44 z M 65 44 A 1 1 0 0 0 64 45 A 1 1 0 0 0 65 46 A 1 1 0 0 0 66 45 A 1 1 0 0 0 65 44 z M 40 54 C 40 54 36 58 36 60 C 36 61.104 36.896 62 38 62 C 39.104 62 40 61.104 40 60 C 40 61.104 40.896 62 42 62 C 43.104 62 44 61.104 44 60 C 44 58 40 54 40 54 z M 32 66 A 1 1 0 0 0 31 67 A 1 1 0 0 0 32 68 A 1 1 0 0 0 33 67 A 1 1 0 0 0 32 66 z M 48 66 A 1 1 0 0 0 47 67 A 1 1 0 0 0 48 68 A 1 1 0 0 0 49 67 A 1 1 0 0 0 48 66 z M 36 67 A 1 1 0 0 0 35 68 A 1 1 0 0 0 36 69 A 1 1 0 0 0 37 68 A 1 1 0 0 0 36 67 z M 40 67 A 1 1 0 0 0 39 68 A 1 1 0 0 0 40 69 A 1 1 0 0 0 41 68 A 1 1 0 0 0 40 67 z M 44 67 A 1 1 0 0 0 43 68 A 1 1 0 0 0 44 69 A 1 1 0 0 0 45 68 A 1 1 0 0 0 44 67 z"/>
</svg>