<?xml version="1.0" encoding="utf-8"?>
<!-- Generator: Adobe Illustrator 21.0.2, SVG Export Plug-In . SVG Version: 6.00 Build 0)  -->
<svg version="1.1" id="Calque_1" xmlns="http://www.w3.org/2000/svg" xmlns:xlink="http://www.w3.org/1999/xlink" x="0px" y="0px"
	 viewBox="0 0 50 50" style="enable-background:new 0 0 50 50;" xml:space="preserve">
<style type="text/css">
	.st0{fill:#FEFEFE;}
</style>
<path class="st0" d="M25,0C11,0,2,7.6,2,19.4c0,5.6,1.8,9.5,2.8,11.3c0.1-0.2,0.2-0.4,0.3-0.5c0.9-1.6,1.7-3.3,1.9-5.3
	c0.1-0.5,0.5-1,1.1-0.9c0.6,0.1,1,0.5,0.9,1.1c-0.2,2.4-1.3,4.3-2.2,6c-1.1,2.1-1.8,3.5-1.3,4.9c0,0.1,0,0.1,0.1,0.2c0,0,0,0,0,0.1
	c0.2,0.5,0.6,1.1,1,1.6c0,0,0,0,0,0c0,0,0,0,0,0c1.9,2.1,3.6,2.7,4.8,3.1c1.3,0.4,1.5,0.5,1.5,1.8c0,6.3,6.1,7.2,12,7.2
	s12-0.9,12-7.2c0-1.3,0.2-1.4,1.5-1.8c1.3-0.4,3-1,4.8-3.1c0,0,0,0,0,0c0,0,0,0,0,0c0.4-0.5,0.8-1,1-1.6c0,0,0,0,0-0.1
	c0-0.1,0-0.1,0.1-0.2c0.5-1.4-0.2-2.8-1.3-4.9c-0.9-1.7-1.9-3.6-2.2-6c-0.1-0.5,0.3-1,0.9-1.1c0.6-0.1,1,0.3,1.1,0.9
	c0.2,2,1.1,3.7,1.9,5.3c0.1,0.2,0.2,0.4,0.3,0.5c1-1.8,2.8-5.7,2.8-11.3C48,7.6,39,0,25,0z M14.3,34.2c-1.6-0.6-3.2-2.7-1.7-7.4
	c1-3.1,4-4.5,7.2-3.5c2.8,0.9,3.7,4.4,2.9,6.9C21.5,33.8,18.1,35.5,14.3,34.2z M26.8,41c-1,0-1.8-1.8-1.8-1.8S24.2,41,23.2,41
	c-0.6,0-1.2-0.5-1.2-1.4c0-1.8,3-5.6,3-5.6s3,3.8,3,5.6C28,40.5,27.4,41,26.8,41z M35.7,34.2c-3.8,1.3-7.2-0.4-8.4-4
	c-0.8-2.5,0.1-6,2.9-6.9c3.2-1,6.2,0.4,7.2,3.5C38.9,31.5,37.3,33.6,35.7,34.2z"/>
</svg>
